<?xml version="1.0" encoding="UTF-8"?>
<svg id="_图层_1" data-name="图层 1" xmlns="http://www.w3.org/2000/svg" viewBox="0 0 716.8 716.8">
  <defs>
    <style>
      .cls-1 {
        fill: #b2e8ff;
      }

      .cls-2 {
        fill: #fff;
      }

      .cls-3 {
        fill: #1a6c91;
      }
    </style>
  </defs>
  <path class="cls-1" d="M0,358.4c0,197.94,160.46,358.4,358.4,358.4s358.4-160.46,358.4-358.4S556.34,0,358.4,0,0,160.46,0,358.4H0Zm0,0"/>
  <path class="cls-3" d="M526.65,318.57c-.31,1.02-.72,1.95-1.02,2.77-.21,.71-.52,1.33-.72,1.94-.2,.61-.51,1.23-.71,1.74,0,0,0,.1-.11,.1-.2,.51-.41,1.02-.71,1.54l-.21,.41c-1.12,2.46-2.36,4.91-3.79,7.37-.3,.62-.71,1.23-1.02,1.84-.61,1.02-1.33,2.15-2.15,3.48-.41,.62-.82,1.13-1.02,1.54l-.11,.1c-1.95,2.77-4.09,5.53-6.35,8.09-.51,.51-.92,1.02-1.43,1.53-1.02,1.12-1.95,2.05-2.87,2.97-1.95,1.95-3.99,3.79-6.04,5.53-.92-3.48-2.15-6.76-3.68-9.93,.92-.82,1.84-1.74,2.77-2.56,.82-.82,1.64-1.64,2.56-2.66,.41-.41,.82-.82,1.23-1.33,1.95-2.25,3.9-4.71,5.73-7.27,.31-.51,.62-.92,.92-1.33,.72-1.02,1.33-2.05,2.05-3.17l.92-1.54c1.23-2.25,2.35-4.4,3.38-6.55l.2-.41c.21-.41,.31-.82,.61-1.43,.21-.51,.41-1.13,.72-1.64,.2-.51,.41-1.12,.61-1.74,.31-.82,.62-1.64,.92-2.66l.21-.41c.1-.2,.2-.51,.3-.92v-.1c.21-.82,.51-1.64,.72-2.56,.1-.41,.2-.72,.3-1.23v-.1c.41-1.64,.82-3.28,1.13-5.02,.1-.51,.2-1.02,.31-1.64,.21-1.43,.51-2.97,.62-4.4,.2-1.95-.41-3.79-1.84-5.12-14.44-13.93-32.26-23.76-51.41-28.57-2.35-.61-4.81,.21-6.25,2.15-1.53,1.84-1.74,4.4-.71,6.55,6.25,12.59,9.52,26.62,9.52,40.75,0,2.76-.11,5.43-.41,8.19-3.07-1.74-6.25-3.18-9.62-4.4,.1-1.23,.1-2.56,.1-3.79,0-18.23-6.25-36.15-17.51-50.49-1.23-1.53-2.97-2.46-4.91-2.35-20.07,.31-39.63,5.94-56.63,16.18-2.05,1.23-3.17,3.59-2.97,5.94,.31,2.35,1.84,4.4,4.2,5.12,13.31,4.51,25.6,12.09,35.53,22.02,1.95,1.95,3.79,4,5.53,6.04-3.48,.92-6.76,2.15-9.93,3.69-.82-.92-1.74-1.84-2.56-2.76-12.9-12.9-30-21.2-48.03-23.35-1.95-.2-3.79,.41-5.12,1.84-13.93,14.44-23.75,32.15-28.57,51.41-.62,2.35,.2,4.81,2.15,6.25,1.84,1.53,4.4,1.74,6.55,.71,.71-.31,1.43-.71,2.15-1.02l.21-.1c.41-.21,.82-.41,1.33-.62q.11,0,.21-.1c.61-.3,1.12-.51,1.54-.71,0,0,.1,0,.1-.1l1.54-.62,.2-.1c.61-.2,1.12-.41,1.74-.61,0,0,.1,0,.1-.1,1.23-.41,2.25-.82,3.07-1.03h.1c.82-.3,1.64-.51,2.36-.71h.11c.61-.21,1.33-.41,1.84-.51h.11c1.02-.31,1.94-.51,2.66-.72h.1c.52-.1,.92-.2,1.43-.3h.21c.31-.11,.71-.21,1.02-.21h.2l.72-.1c.61-.1,1.33-.2,1.84-.31h.1c.1,0,.31,0,.41-.1h.2c.72-.1,1.43-.2,2.25-.3,1.12-.21,2.25-.31,3.18-.41h.1c.61-.1,1.23-.1,1.84-.21h.2c.92-.1,1.95-.2,3.18-.2,1.54-.1,2.87-.1,4.09-.1,2.76,0,5.43,.1,8.2,.41-1.74,3.07-3.18,6.25-4.41,9.63-1.23-.11-2.56-.11-3.79-.11-1.12,0-2.25,0-3.68,.11-1.13,0-2.05,.1-2.87,.2h-.21c-.41,0-.92,.1-1.54,.1-.92,.1-1.84,.21-2.97,.41l-2.15,.31-.92,.1h-.2l-.82,.1h-.2c-.21,0-.41,.1-.61,.1l-.62,.1c-.1,0-.31,.1-.41,.1l-.51,.1c-.41,.1-.71,.2-1.23,.31-.82,.2-1.54,.41-2.56,.61-.41,.1-.92,.2-1.54,.41-.71,.2-1.43,.41-2.25,.71-.92,.31-1.84,.62-2.97,1.02h-.1c-.41,.21-.92,.31-1.33,.51l-.41,.2c-.3,.1-.71,.31-1.12,.51-.51,.2-1.02,.41-1.43,.61l-.31,.1c-.2,.1-.51,.2-.82,.41l-.41,.21c-1.02,.51-2.05,.92-2.87,1.43-.51,.31-1.02,.51-1.64,.92-.51,.3-1.02,.51-1.64,.92-2.05,1.12-4.1,2.46-6.14,3.89l-.1,.1c-.51,.31-1.02,.72-1.54,1.02-.72,.51-1.33,1.02-2.05,1.54l-.2,.21c-1.43,1.23-2.36,2.97-2.25,4.91,.31,20.07,5.94,39.63,16.18,56.63,1.12,1.84,3.18,2.97,5.22,2.97h.72c2.35-.31,4.4-1.84,5.12-4.2,.51-1.54,1.02-2.97,1.64-4.4,.3-.72,.51-1.43,.82-2.05,.92-2.15,1.95-4.3,2.87-6.04,0,0,0-.1,.11-.1l.92-1.84c.3-.61,.71-1.23,1.02-1.95,.41-.61,.71-1.33,1.12-1.94,1.74-2.87,3.59-5.63,5.63-8.19,.41-.51,.72-1.03,1.12-1.43,.82-1.03,1.64-2.05,2.66-3.18,.51-.51,.92-1.02,1.23-1.43l.1-.1c.82-.92,1.74-1.94,2.87-2.97,1.95-1.95,3.89-3.79,6.04-5.53,.92,3.48,2.25,6.76,3.69,9.93-.92,.82-1.84,1.74-2.77,2.56-.92,.92-1.74,1.84-2.56,2.77-.41,.41-.72,.82-1.13,1.33-.92,1.02-1.64,1.94-2.36,2.76-.3,.41-.61,.82-1.02,1.23-1.74,2.25-3.48,4.71-5.02,7.27-.31,.51-.72,1.13-1.02,1.74l-.11,.2c-.3,.51-.61,1.02-.82,1.54-.31,.51-.51,1.02-.82,1.54-.92,1.74-1.84,3.68-2.66,5.63-.2,.51-.41,.92-.61,1.43l-.2,.41c-.51,1.33-1.02,2.66-1.54,4.3-.1,.41-.31,.82-.41,1.33-.21,.61-.41,1.33-.62,1.95l-.1,.31c-.1,.51-.31,1.02-.41,1.54-.41,1.54-.71,3.18-1.02,4.81-.1,.51-.2,.92-.3,1.54-.21,1.43-.52,2.97-.62,4.41-.2,1.95,.41,3.79,1.84,5.12,14.44,13.93,32.15,23.76,51.41,28.57,.51,.1,1.02,.21,1.43,.21,1.84,0,3.58-.82,4.81-2.25,1.54-1.84,1.74-4.4,.71-6.55l-.2-.41-.92-1.84c-.31-.61-.51-1.23-.92-2.05-1.12-2.66-2.15-5.43-3.18-8.4-.2-.72-.41-1.43-.61-2.05-.2-.72-.41-1.43-.61-2.05-.41-1.54-.82-3.07-1.13-4.5-.1-.62-.3-1.33-.41-1.94-.1-.62-.21-1.23-.31-1.95,0-.1,0-.2-.1-.3v-.21c-.1-.51-.21-.92-.21-1.43v-.51l-.1-.51c-.1-.51-.2-1.12-.2-1.64-.31-2.25-.51-4.61-.62-6.96-.1-1.54-.1-2.87-.1-4.09,0-2.77,.1-5.43,.41-8.2,3.07,1.74,6.25,3.17,9.62,4.41-.1,1.23-.1,2.56-.1,3.79,0,1.12,0,2.25,.1,3.68,.1,2.05,.31,4.2,.51,6.25,0,.41,.1,.72,.1,1.13v.51c0,.2,.11,.31,.11,.51v.2c.1,.41,.1,.82,.2,1.23v.51c.1,.51,.21,1.02,.31,1.64,.1,.52,.2,1.13,.41,1.74,.31,1.33,.61,2.56,.92,3.99,.2,.62,.31,1.23,.51,1.95l.61,1.84c.82,2.66,1.84,5.12,2.87,7.48,.2,.61,.51,1.12,.82,1.74,.3,.51,.51,1.12,.82,1.74l.11,.11c.3,.61,.61,1.12,.92,1.74,.31,.61,.62,1.23,1.03,1.84l.1,.2c.2,.52,.51,.92,.82,1.33l.2,.31c.2,.31,.41,.61,.51,.92l.31,.51s0,.1,.1,.1l.51,.82c.2,.31,.41,.61,.61,1.02,.31,.51,.62,1.02,1.02,1.43l.11,.2c.82,1.13,1.64,2.36,2.46,3.38l.41,.52c1.12,1.43,2.97,2.35,4.81,2.35h.1c20.07-.3,39.63-5.94,56.62-16.18,2.05-1.23,3.18-3.59,2.97-5.94-.31-2.36-1.84-4.4-4.2-5.12-.92-.31-1.95-.61-2.87-1.02-.61-.2-1.33-.51-2.05-.72-.62-.31-1.23-.51-1.64-.72,0,0-.1,0-.1-.1-.51-.2-1.02-.41-1.64-.71l-.41-.21c-2.46-1.12-4.92-2.36-7.38-3.79-.61-.31-1.23-.71-1.84-1.02-1.23-.72-2.36-1.43-3.48-2.15-.51-.31-.92-.62-1.54-1.03-2.97-2.05-5.73-4.19-8.29-6.45-.52-.51-1.03-.92-1.43-1.23l-.11-.1c-.92-.82-1.95-1.74-2.97-2.87-1.94-1.94-3.79-3.99-5.53-6.04,3.48-.92,6.76-2.15,9.93-3.68,.82,.92,1.74,1.84,2.56,2.77,1.02,1.02,1.84,1.74,2.66,2.56,.41,.41,.82,.82,1.33,1.23,2.25,1.95,4.71,3.9,7.48,5.84,.41,.3,.82,.61,1.23,.82,.92,.62,1.95,1.23,3.18,1.95l1.54,.92c2.25,1.23,4.4,2.36,6.55,3.38l.51,.2c.41,.2,.71,.31,1.23,.51,.62,.2,1.13,.51,1.64,.72,.61,.2,1.12,.41,1.74,.71l2.76,.92h.1c.41,.1,.82,.31,1.43,.41,.71,.2,1.33,.41,2.05,.61l.41,.1h.1c.41,.11,.82,.21,1.33,.31,1.54,.41,3.17,.72,4.81,1.12,.51,.11,.92,.21,1.53,.31,1.43,.2,2.97,.51,4.4,.61h.72c1.64,0,3.28-.72,4.4-1.84,13.93-14.44,23.76-32.15,28.57-51.4,.61-2.36-.21-4.81-2.15-6.25-1.95-1.43-4.4-1.74-6.55-.72l-.41,.21c-.62,.3-1.13,.61-1.84,.92-.61,.3-1.33,.61-1.95,.92l-.51,.21-1.54,.61-1.54,.61c-.1,0-.2,.11-.3,.11-.11,.1-.31,.1-.31,.1q-.1,0-.2,.1c-1.33,.51-2.66,.92-3.89,1.33-.92,.31-1.74,.51-2.66,.82l-.41,.1c-.41,.1-.82,.2-1.12,.3h-.1c-1.43,.41-2.97,.82-4.4,1.03-.61,.1-1.33,.31-1.95,.41-.61,.11-1.23,.21-1.94,.41-.1,0-.2,0-.31,.11h-.2c-.51,.1-1.02,.2-1.33,.2h-.1c-.2,0-.82,.1-.82,.1-.61,.1-1.23,.21-1.74,.21-2.36,.3-4.71,.51-6.96,.61-1.53,.1-2.87,.1-4.1,.1-2.76,0-5.42-.1-8.19-.41,1.74-3.07,3.18-6.25,4.4-9.62,1.23,.1,2.56,.1,3.79,.1s2.46,0,3.69-.1c2.05-.1,4.2-.31,6.25-.51,.41-.1,.92-.1,1.33-.2l.92-.11c.41-.1,.82-.1,1.33-.2l.82-.1c.41-.1,.92-.21,1.43-.31,.52-.1,1.13-.2,1.74-.41,1.23-.3,2.56-.61,3.99-.92h.11c.3-.1,.61-.2,1.12-.3l.31-.11c.72-.2,1.54-.41,2.25-.71,1.03-.31,1.95-.61,2.87-1.02,.1,0,.21-.1,.31-.1l.92-.31,1.53-.61c.41-.1,.72-.31,1.13-.51l.72-.31c.51-.2,1.02-.41,1.53-.72l.21-.1c.51-.2,1.02-.51,1.64-.82l.21-.11c1.23-.61,2.46-1.23,3.48-1.84l.82-.41c.3-.21,.71-.41,1.12-.62,.61-.3,1.12-.71,1.74-1.02,2.46-1.54,4.91-3.28,7.27-5.12,1.54-1.23,2.36-2.97,2.36-4.91-.31-20.07-5.94-39.63-16.18-56.62-1.23-2.05-3.59-3.18-5.94-2.97-2.36,.62-4.4,2.25-5.12,4.61h0Zm0,0"/>
  <path class="cls-3" d="M574.36,242.69c-36.05-36.04-83.87-55.91-134.55-55.91H194.05c-37.27,0-67.58,30.31-67.58,67.59v245.76c0,37.27,30.31,67.59,67.58,67.59h48.74v10.65c0,9.73,7.89,17.72,17.71,17.72h69.43c9.73,0,17.71-7.88,17.71-17.72v-10.65h10.96v13.93c0,7.99,6.45,14.44,14.44,14.44h30.82c7.98,0,14.44-6.45,14.44-14.44v-13.93h21.61c50.69,0,98.41-19.87,134.56-55.91,36.04-36.05,55.91-83.87,55.91-134.55s-19.87-98.51-56.01-134.55h0Zm-8.19,133.53c0,69.63-56.63,126.26-126.26,126.26s-126.26-56.63-126.26-126.26,56.62-126.26,126.26-126.26c69.63-.1,126.26,56.63,126.26,126.26h0Zm-377.14,119.7c5.12,0,9.21,4.1,9.21,9.22s-4.09,9.21-9.21,9.21-9.22-4.1-9.22-9.21,4.1-9.22,9.22-9.22h0Zm0-237.57c-5.12,0-9.22-4.1-9.22-9.21s4.1-9.22,9.22-9.22,9.21,4.1,9.21,9.22-4.2,9.21-9.21,9.21h0Zm0,0"/>
  <path class="cls-2" d="M319.69,579.59h-69.42c-6.35,0-11.57-5.22-11.57-11.57v-31.74c0-6.35,5.22-11.57,11.57-11.57h69.42c6.35,0,11.57,5.22,11.57,11.57v31.74c0,6.45-5.22,11.57-11.57,11.57h0Zm0,0"/>
  <path class="cls-3" d="M319.69,585.73h-69.42c-9.73,0-17.71-7.88-17.71-17.72v-31.74c0-9.73,7.88-17.71,17.71-17.71h69.42c9.73,0,17.71,7.88,17.71,17.71v31.74c0,9.83-7.98,17.72-17.71,17.72h0Zm-69.32-54.78c-2.97,0-5.43,2.46-5.43,5.43v31.74c0,2.97,2.46,5.43,5.43,5.43h69.43c2.97,0,5.43-2.46,5.43-5.43v-31.74c0-2.97-2.46-5.43-5.43-5.43h-69.43Zm0,0"/>
  <path class="cls-2" d="M393.63,579.59h-30.82c-4.51,0-8.3-3.69-8.3-8.3v-38.3c0-4.5,3.69-8.29,8.3-8.29h30.82c4.51,0,8.3,3.68,8.3,8.29v38.4c-.11,4.51-3.79,8.2-8.3,8.2h0Zm0,0"/>
  <path class="cls-3" d="M393.63,585.73h-30.82c-7.99,0-14.44-6.45-14.44-14.44v-38.3c0-7.99,6.45-14.44,14.44-14.44h30.82c7.99,0,14.44,6.45,14.44,14.44v38.4c-.1,7.89-6.55,14.34-14.44,14.34h0Zm-30.93-54.78c-1.12,0-2.15,.92-2.15,2.15v38.3c0,1.13,.92,2.15,2.15,2.15h30.82c1.12,0,2.15-.92,2.15-2.15v-38.3c0-1.12-.92-2.15-2.15-2.15h-30.82Zm0,0"/>
  <path class="cls-2" d="M436.53,337c-4.61-15.16-12.9-28.98-24.37-40.45-10.75-10.75-23.66-18.74-37.89-23.55,16.18-9.73,34.41-14.95,53.55-15.26,10.45,13.21,16.18,29.7,16.18,46.69-.11,11.47-2.66,22.53-7.48,32.57h0Zm0,0"/>
  <path class="cls-3" d="M436.53,343.14h-.51c-2.56-.2-4.71-1.95-5.43-4.3-4.3-14.13-12.19-27.24-22.84-37.89-9.93-9.93-22.22-17.61-35.53-22.02-2.25-.71-3.89-2.77-4.2-5.12-.31-2.36,.92-4.71,2.97-5.94,17-10.24,36.55-15.77,56.62-16.18,1.94-.1,3.79,.82,4.92,2.36,11.26,14.34,17.51,32.25,17.51,50.48,0,12.39-2.66,24.27-7.99,35.22-1.03,2.05-3.18,3.38-5.53,3.38h0Zm-47.72-70.76c10.24,5.02,19.66,11.78,27.75,19.87,7.99,7.99,14.65,17.2,19.66,27.24,1.13-4.91,1.64-9.93,1.64-15.05,0-14.44-4.61-28.67-13-40.45-12.6,.61-24.78,3.48-36.05,8.4h0Zm0,0"/>
  <path class="cls-2" d="M454.76,350.31c7.48-14.03,11.37-29.7,11.37-45.88,0-15.15-3.48-30-10.24-43.52,18.23,4.51,34.92,13.72,48.64,27.04-.2,1.33-.41,2.77-.61,4.09-.1,.62-.2,1.03-.31,1.43-.3,1.64-.61,3.07-1.02,4.61v.21c-.1,.3-.2,.61-.2,.92-.31,.92-.51,1.64-.72,2.46-.1,.31-.2,.61-.2,.82l-.21,.62c-.3,.82-.51,1.64-.82,2.46l-.62,1.54-.61,1.54c-.2,.61-.41,.92-.51,1.23l-.2,.41c-.92,1.95-1.95,3.99-3.07,6.04-.2,.41-.51,.92-.72,1.33-.72,1.12-1.33,2.05-1.94,3.07-.21,.3-.51,.82-.82,1.23-1.64,2.46-3.48,4.71-5.32,6.76-.41,.41-.72,.82-1.13,1.23-.92,1.02-1.64,1.74-2.35,2.56-8.2,7.99-17.82,14.03-28.37,17.82h0Zm0,0"/>
  <path class="cls-3" d="M454.76,356.45c-1.74,0-3.48-.72-4.71-2.15-1.64-1.95-1.95-4.61-.72-6.86,6.96-13.1,10.65-27.95,10.65-42.9,0-14.13-3.28-28.16-9.52-40.76-1.02-2.15-.82-4.71,.72-6.55,1.54-1.84,3.99-2.66,6.25-2.15,19.25,4.81,36.97,14.64,51.4,28.57,1.43,1.33,2.05,3.28,1.84,5.12-.2,1.54-.41,2.97-.61,4.4-.1,.61-.21,1.12-.31,1.64-.3,1.74-.72,3.38-1.12,5.02v.1c-.1,.51-.21,.82-.31,1.23-.2,.92-.51,1.74-.71,2.56v.1c-.1,.41-.21,.61-.31,.92l-.2,.41c-.31,.92-.62,1.84-.92,2.66-.21,.62-.41,1.13-.62,1.74-.2,.51-.41,1.12-.72,1.64-.31,.61-.41,1.02-.61,1.43l-.21,.41c-1.02,2.15-2.15,4.3-3.38,6.55l-.92,1.54c-.71,1.13-1.33,2.15-2.05,3.18-.31,.41-.61,.92-.92,1.33-1.74,2.56-3.69,5.01-5.73,7.27-.41,.51-.82,.92-1.23,1.33-.92,1.02-1.74,1.84-2.56,2.66-8.7,8.71-19.05,15.26-30.62,19.25-.51,.2-1.23,.31-1.84,.31h0Zm11.88-85.61c3.69,10.75,5.63,22.22,5.63,33.59s-1.84,22.53-5.43,33.18c4.2-2.66,8.2-5.84,11.78-9.52,.72-.72,1.33-1.43,2.25-2.36,.3-.41,.61-.71,.92-1.12,1.74-1.94,3.38-4.1,4.91-6.25,0,0,0-.1,.1-.1,.21-.31,.51-.71,.72-1.02,.61-.92,1.12-1.84,1.84-2.87,.2-.41,.41-.71,.61-1.12,1.12-1.94,2.05-3.79,2.87-5.63l.2-.41c.11-.3,.31-.61,.51-1.12v-.1c.21-.51,.41-.92,.62-1.43,.2-.41,.3-.92,.51-1.33,.31-.72,.51-1.43,.72-2.15v-.1l.21-.61q0-.1,.1-.21l.1-.41c.21-.82,.41-1.54,.72-2.36,.1-.21,.1-.41,.2-.62v-.31c.41-1.43,.72-2.76,.92-4.3v-.1c.1-.31,.1-.61,.2-1.12,0-.31,.11-.51,.11-.82-9.22-8.19-19.87-14.85-31.34-19.25h0Zm0,0"/>
  <path class="cls-2" d="M490.8,379.9c-11.47,0-22.53-2.56-32.57-7.37,15.16-4.61,28.98-12.9,40.45-24.37,1.02-1.02,1.95-2.05,2.97-3.18,.41-.51,1.02-1.02,1.54-1.64,2.35-2.66,4.61-5.63,6.76-8.6,.3-.41,.82-1.12,1.23-1.74,.92-1.43,1.64-2.56,2.35-3.68,.31-.51,.72-1.33,1.13-1.95,1.43-2.56,2.76-5.22,3.99-7.78l.2-.41c.21-.61,.51-1.12,.72-1.74,.2-.51,.51-1.23,.82-1.84,.3-.72,.51-1.43,.82-2.15,.31-.92,.72-1.94,1.13-3.07,9.73,16.18,14.95,34.41,15.26,53.55-2.15,1.74-4.41,3.28-6.76,4.71l-1.53,.92c-.41,.2-.72,.41-1.02,.61l-.82,.41c-.92,.51-1.95,1.02-3.17,1.64l-.21,.11c-.51,.2-1.02,.51-1.53,.72-.61,.31-1.12,.51-1.64,.72l-.62,.3c-.31,.1-.61,.31-.92,.41-.61,.2-1.12,.41-1.64,.61l-.92,.31c-.82,.31-1.74,.61-2.66,.92-.72,.2-1.43,.41-2.05,.61l-.31,.1c-.41,.11-.72,.21-1.03,.31l-.2,.1c-1.23,.31-2.46,.62-3.59,.92-.61,.1-1.12,.21-1.64,.31-.51,.1-.92,.2-1.33,.3l-.71,.11c-.41,.1-.82,.1-1.13,.2l-.82,.1c-.41,0-.72,.1-1.13,.1-1.95,.2-3.89,.41-5.84,.51-1.23-.21-2.36-.11-3.58-.11h0Zm0,0"/>
  <path class="cls-3" d="M490.8,386.05c-12.39,0-24.27-2.66-35.23-7.98-2.25-1.13-3.69-3.49-3.48-6.04,.2-2.56,1.94-4.71,4.3-5.43,14.13-4.3,27.24-12.19,37.89-22.84,.92-.92,1.84-1.84,2.87-2.97,.41-.52,.92-1.03,1.43-1.54,2.25-2.56,4.4-5.22,6.35-8.09,0,0,0-.1,.1-.1,.31-.41,.72-1.02,1.03-1.54,.82-1.33,1.54-2.46,2.15-3.48,.31-.62,.72-1.23,1.02-1.84,1.33-2.46,2.66-4.92,3.79-7.37l.21-.41c.2-.51,.41-1.02,.72-1.54,0,0,0-.1,.1-.1,.21-.51,.41-1.12,.72-1.74,.3-.61,.51-1.33,.71-1.95,.31-.82,.72-1.84,1.02-2.76,.72-2.25,2.77-3.89,5.12-4.2,2.35-.31,4.71,.92,5.94,2.97,10.24,17,15.77,36.56,16.18,56.63,0,1.95-.82,3.79-2.35,4.91-2.36,1.84-4.82,3.58-7.27,5.12-.51,.3-1.12,.71-1.74,1.02-.41,.2-.72,.41-1.13,.61l-.82,.41c-1.03,.61-2.25,1.23-3.49,1.84l-.2,.1c-.61,.31-1.12,.51-1.64,.82l-.2,.1c-.51,.2-1.02,.51-1.53,.72l-.72,.31c-.41,.2-.82,.31-1.12,.51l-1.54,.61-.92,.31c-.1,0-.21,.1-.31,.1-.92,.31-1.84,.61-2.87,1.02-.82,.21-1.54,.51-2.25,.72l-.31,.1c-.51,.1-.82,.2-1.13,.31h-.1c-1.33,.41-2.66,.71-3.99,.92-.61,.1-1.23,.2-1.74,.41-.51,.1-.92,.2-1.43,.3l-.82,.1c-.41,.1-.82,.1-1.33,.21l-.92,.1c-.41,.1-.92,.1-1.33,.2-2.05,.21-4.2,.41-6.25,.51-1.02-.21-2.15-.11-3.48-.11h0Zm-15.05-13.93c4.91,1.12,9.93,1.64,15.05,1.64,1.12,0,2.15,0,3.17-.11,1.74-.1,3.48-.2,5.32-.41,.41,0,.72-.1,1.03-.1l.82-.1c.31,0,.62-.1,1.02-.2l.72-.11c.31-.1,.71-.1,1.23-.2,.52-.1,1.03-.2,1.64-.31,1.02-.2,2.15-.51,3.28-.82h.1l.2-.1c.31-.1,.51-.1,.82-.2l.31-.1,1.84-.62c.82-.2,1.53-.51,2.25-.71q.11,0,.21-.1l1.02-.41c.41-.21,.82-.31,1.33-.51,.31-.1,.61-.21,.82-.31l.72-.3c.41-.21,.82-.41,1.33-.62l.2-.1c.41-.2,.92-.41,1.33-.61l3.07-1.53,.72-.41c.31-.21,.61-.31,.92-.51,.51-.31,1.02-.62,1.43-.82,1.23-.82,2.56-1.64,3.79-2.56-.62-12.5-3.48-24.68-8.4-35.94-.92,1.84-1.84,3.69-2.87,5.53-.41,.82-.92,1.54-1.33,2.25-.71,1.12-1.43,2.36-2.46,3.79-.51,.71-1.02,1.43-1.33,1.95-2.25,3.17-4.61,6.25-7.06,9.11-.51,.61-1.13,1.23-1.64,1.84-1.12,1.23-2.15,2.25-3.17,3.27-8.19,7.79-17.41,14.44-27.44,19.46h0Zm0,0"/>
  <path class="cls-2" d="M507.29,440.52c-1.33-.2-2.77-.41-4.09-.61-.51-.1-.92-.2-1.33-.2-1.64-.31-3.07-.62-4.51-1.03-.51-.1-.92-.2-1.33-.31l-.41-.1-1.84-.62c-.51-.1-.82-.2-1.13-.3l-.2-.11c-.92-.3-1.74-.61-2.56-.92-.62-.21-1.13-.41-1.64-.62-.41-.2-.92-.41-1.53-.61-.51-.2-.82-.31-1.12-.51l-.51-.21c-1.95-.92-4-1.95-6.04-3.07-.41-.2-.92-.51-1.33-.71-1.23-.72-2.15-1.33-2.97-1.84-.41-.31-.82-.51-1.12-.82-2.46-1.74-4.81-3.48-6.86-5.33-.51-.41-.82-.72-1.23-1.13-.82-.71-1.64-1.43-2.56-2.35-8.09-8.09-14.13-17.72-17.82-28.27,14.03,7.48,29.7,11.37,45.88,11.37,1.23,0,2.66,0,4.3-.1,2.56-.1,5.02-.31,7.48-.61,.61-.11,1.23-.21,1.84-.21,0,0,.71-.1,.92-.1,.41-.1,.92-.1,1.54-.2,.2,0,.41-.1,.61-.1,.61-.1,1.33-.2,2.05-.41,.62-.1,1.33-.31,2.05-.41,1.53-.31,3.07-.72,4.71-1.13,.41-.1,.92-.2,1.33-.41l.41-.1c.92-.3,1.95-.61,2.87-.82,1.43-.52,2.87-.92,4.2-1.43,.2-.11,.51-.21,.82-.31,.51-.21,1.12-.41,1.64-.61,.51-.21,1.12-.41,1.64-.72l.41-.2c.82-.31,1.43-.62,2.15-.92,.72-.31,1.33-.62,1.95-.92,0,0,.41-.21,.51-.21-4.61,17.92-13.82,34.51-27.14,48.23h0Zm0,0"/>
  <path class="cls-3" d="M507.29,446.67h-.71c-1.43-.2-2.97-.41-4.41-.61-.61-.1-1.02-.21-1.54-.31-1.64-.3-3.28-.72-4.81-1.12-.41-.1-.92-.21-1.33-.31h-.1l-.41-.1c-.61-.2-1.33-.41-2.05-.61-.61-.21-1.02-.31-1.43-.41h-.1l-2.77-.92c-.61-.2-1.23-.41-1.74-.72-.51-.2-1.12-.41-1.64-.71-.51-.2-.82-.41-1.23-.51l-.51-.21c-2.15-1.02-4.3-2.05-6.55-3.38l-1.54-.92c-1.23-.71-2.25-1.33-3.17-1.95-.41-.3-.82-.61-1.23-.82-2.66-1.84-5.22-3.79-7.48-5.84-.51-.41-.92-.82-1.33-1.23-.82-.72-1.64-1.54-2.66-2.56-8.8-8.81-15.26-19.05-19.35-30.62-.82-2.35-.1-5.02,1.84-6.65,1.95-1.64,4.71-1.95,6.86-.72,13.11,6.96,27.95,10.65,42.91,10.65,1.23,0,2.46,0,4.09-.1,2.25-.1,4.61-.31,6.96-.61,.51-.1,1.12-.1,1.74-.21,0,0,.62-.1,.82-.1h.1c.31,0,.82-.1,1.33-.2h.21c.1,0,.2,0,.31-.1,.72-.11,1.33-.21,1.94-.41,.62-.11,1.23-.21,1.95-.41,1.43-.31,2.97-.61,4.41-1.02h.1c.41-.11,.82-.21,1.12-.31l.41-.1c.92-.21,1.74-.51,2.66-.82,1.33-.41,2.66-.92,3.89-1.33q.1,0,.2-.1c.1,0,.21-.1,.31-.1s.2-.1,.3-.1l1.54-.62,1.53-.61,.51-.2c.72-.31,1.33-.62,1.95-.92,.72-.31,1.23-.62,1.84-.92l.41-.21c2.15-1.02,4.71-.82,6.55,.72,1.84,1.54,2.66,3.99,2.15,6.25-4.81,19.25-14.64,37.07-28.57,51.41-1.02,1.12-2.66,1.74-4.3,1.74h0Zm-49.56-43.83c2.66,4.2,5.84,8.19,9.52,11.78,.82,.82,1.54,1.54,2.25,2.15,.41,.41,.72,.71,1.12,1.02,1.94,1.74,4.1,3.38,6.35,4.91,.3,.2,.61,.41,1.02,.72,.82,.51,1.74,1.12,2.77,1.74,.41,.21,.71,.41,1.12,.61,1.94,1.13,3.79,2.05,5.53,2.87l.51,.21c.3,.1,.61,.31,1.02,.41,.61,.2,1.12,.41,1.43,.61,.41,.2,.92,.41,1.43,.51,.82,.31,1.54,.51,2.36,.82l.3,.1c.31,.1,.51,.2,.82,.31h.1c.62,.2,1.23,.41,1.74,.51l.41,.1c.41,.1,.71,.2,1.13,.31,1.33,.31,2.66,.61,4.2,.92,.41,.1,.82,.1,1.23,.2,.21,0,.52,.1,.72,.1,8.4-9.22,14.95-19.86,19.46-31.33-.62,.2-1.13,.41-1.74,.61l-3.07,.92-.41,.1c-.51,.1-.92,.31-1.43,.41-1.74,.51-3.48,.92-5.12,1.23-.72,.11-1.54,.31-2.15,.41-.62,.11-1.33,.31-2.05,.41-.2,0-.51,.1-.71,.1-.62,.1-1.13,.21-1.54,.21-.31,0-1.03,.1-1.03,.1-.72,.1-1.43,.2-2.05,.31-2.56,.3-5.22,.51-7.88,.61-1.74,.1-3.18,.1-4.61,.1-10.96,.31-22.22-1.54-32.77-5.12h0Zm0,0"/>
  <path class="cls-2" d="M431.21,472.98c-.72-.92-1.54-2.05-2.25-3.07l-.1-.21c-.31-.41-.61-.92-.92-1.33-.31-.41-.41-.72-.61-.92l-.51-.92-.31-.51c-.1-.21-.31-.51-.41-.72l-.2-.41c-.21-.41-.51-.82-.72-1.23l-.1-.1c-.31-.51-.61-1.13-.92-1.64-.31-.51-.51-1.02-.82-1.64v-.1c-.3-.62-.51-1.13-.82-1.64-.21-.51-.51-1.02-.72-1.64-1.02-2.25-1.84-4.51-2.66-6.97-.21-.51-.31-1.12-.52-1.64-.2-.51-.3-1.23-.51-1.74-.31-1.23-.61-2.46-.92-3.59-.1-.61-.2-1.12-.31-1.64-.1-.61-.21-1.02-.31-1.54v-.21l-.1-.31c-.1-.41-.1-.72-.2-1.13,0-.31-.11-.51-.11-.82v-.31c0-.31-.1-.61-.1-1.02-.2-1.95-.41-3.89-.51-5.84,0-1.13-.1-2.25-.1-3.38,0-11.47,2.56-22.53,7.37-32.57,4.61,15.16,12.9,28.98,24.37,40.45,1.23,1.23,2.25,2.15,3.28,3.07,.41,.41,1.02,.92,1.64,1.43,2.66,2.35,5.63,4.71,8.8,6.86l.1,.1c.51,.41,1.02,.72,1.53,1.02,1.13,.72,2.36,1.54,3.59,2.25,.61,.41,1.33,.82,2.05,1.12,2.56,1.43,5.22,2.76,7.79,4l.41,.2c.62,.31,1.23,.51,1.84,.82,.41,.2,1.13,.51,1.84,.71,.82,.31,1.54,.62,2.25,.82,.92,.41,1.95,.72,2.97,1.02-16.18,9.73-34.41,14.95-53.55,15.26-.31-.1-.41-.2-.51-.41h0Zm0,0"/>
  <path class="cls-3" d="M431.51,479.64c-1.84,0-3.68-.82-4.81-2.36l-.41-.51-2.46-3.38-.1-.2c-.3-.51-.71-.92-1.02-1.43-.2-.41-.41-.72-.61-1.02l-.51-.82s0-.1-.11-.1l-.3-.51c-.21-.31-.41-.62-.51-.92l-.21-.31c-.3-.41-.51-.92-.82-1.33l-.11-.2c-.3-.61-.71-1.23-1.02-1.84-.3-.61-.61-1.12-.92-1.74l-.1-.1c-.31-.61-.61-1.23-.82-1.74-.31-.51-.51-1.12-.82-1.74-1.02-2.46-1.95-4.91-2.87-7.48l-.62-1.84c-.2-.61-.41-1.23-.51-1.95-.41-1.33-.71-2.66-.92-3.99-.1-.61-.31-1.23-.41-1.74-.1-.61-.21-1.12-.31-1.64v-.51c-.1-.41-.1-.82-.21-1.23v-.2c0-.21,0-.31-.1-.51v-.51c-.1-.41-.1-.82-.1-1.13-.2-2.05-.41-4.2-.51-6.25-.1-1.33-.1-2.56-.1-3.69,0-12.39,2.66-24.27,7.98-35.22,1.13-2.25,3.48-3.69,6.04-3.49,2.56,.21,4.71,1.95,5.43,4.3,4.3,14.13,12.19,27.24,22.83,37.89,1.13,1.12,2.05,2.05,2.97,2.87l.1,.1c.41,.31,.92,.82,1.43,1.23,2.56,2.25,5.32,4.41,8.29,6.45,.51,.41,1.02,.71,1.54,1.02,1.13,.72,2.25,1.43,3.48,2.15,.61,.31,1.23,.72,1.84,1.02,2.46,1.33,4.92,2.66,7.38,3.79l.41,.2c.51,.21,1.12,.51,1.64,.72,0,0,.1,0,.1,.1,.41,.2,1.03,.41,1.64,.72,.72,.31,1.33,.51,2.05,.72,.92,.31,1.84,.71,2.87,1.02,2.25,.72,3.89,2.77,4.2,5.12,.31,2.35-.92,4.71-2.97,5.94-17,10.24-36.56,15.77-56.63,16.18q-.2,.1-.31,.1h0Zm.41-16.28l.51,.82c.21,.2,.31,.51,.51,.82,.31,.51,.62,.82,.82,1.23l.1,.21c.21,.3,.41,.51,.51,.82,12.5-.61,24.68-3.48,35.94-8.4-1.84-.92-3.69-1.84-5.43-2.87-.71-.41-1.54-.92-2.15-1.33-1.33-.82-2.56-1.64-3.79-2.35-.51-.31-1.12-.71-1.64-1.12h-.11c-3.38-2.36-6.55-4.81-9.42-7.37-.62-.51-1.23-1.02-1.64-1.54-1.12-1.02-2.15-2.05-3.48-3.28-7.99-7.99-14.65-17.2-19.66-27.24-1.13,4.91-1.64,9.93-1.64,15.06,0,1.02,0,2.15,.1,3.17,.11,1.74,.21,3.48,.41,5.32,0,.31,.1,.62,.1,.82v.21c.1,.3,.1,.61,.1,.92s.1,.52,.1,.82v.21c0,.2,.1,.31,.1,.51,.1,.41,.1,.82,.21,1.23l.31,1.54c.21,1.13,.51,2.15,.82,3.28,.2,.62,.31,1.13,.51,1.74,.2,.51,.31,1.12,.51,1.54,.72,2.15,1.54,4.3,2.46,6.35,.21,.51,.41,1.02,.62,1.43,.2,.51,.51,1.02,.71,1.54,.2,.51,.51,1.02,.72,1.54,.3,.51,.61,1.02,.82,1.53l.1,.1v.1c.21,.3,.31,.61,.52,.92l.1,.1,.2,.41c.21,.31,.31,.51,.41,.61l.61,.61Zm0,0"/>
  <path class="cls-2" d="M403.36,470.32c-18.23-4.51-34.92-13.72-48.64-27.03,.2-1.33,.41-2.77,.61-4.09,.1-.51,.2-.92,.2-1.33,.31-1.64,.62-3.07,1.03-4.51,.1-.51,.3-1.02,.41-1.43l.1-.31c.2-.62,.41-1.23,.51-1.84,.1-.51,.2-.82,.41-1.13,.51-1.54,.92-2.76,1.43-3.99l.1-.31c.2-.41,.41-.92,.61-1.33,.82-1.84,1.64-3.59,2.46-5.22,.31-.62,.51-1.02,.82-1.43,.31-.51,.51-1.02,.82-1.54l.1-.21,.92-1.54c1.43-2.35,2.97-4.61,4.6-6.76,.41-.51,.62-.82,.92-1.13,.72-.92,1.43-1.74,2.15-2.66,.41-.51,.72-.82,1.12-1.23,.72-.82,1.54-1.64,2.36-2.56,8.09-8.09,17.72-14.13,28.26-17.82-7.47,14.03-11.36,29.69-11.36,45.88,0,1.33,0,2.66,.1,4.3,.1,2.56,.3,5.02,.61,7.47,.1,.51,.1,1.13,.2,1.74l.11,.51v.51c.1,.51,.2,1.02,.2,1.53,0,.21,.1,.41,.1,.62,.11,.72,.21,1.33,.41,2.05,.1,.61,.31,1.33,.41,2.05,.31,1.54,.72,3.18,1.23,4.91,.2,.62,.41,1.43,.61,2.15,.2,.72,.41,1.43,.71,2.25,1.03,3.17,2.15,6.15,3.38,9.01,.31,.82,.62,1.43,.92,2.15,.31,.72,.62,1.33,1.03,2.05-.11-.2,0,.11,0,.21h0Zm0,0"/>
  <path class="cls-3" d="M403.36,476.47c-.52,0-1.03-.11-1.43-.21-19.25-4.81-37.07-14.64-51.41-28.57-1.33-1.33-2.05-3.28-1.84-5.12,.2-1.43,.41-2.97,.61-4.41,.11-.61,.21-1.12,.31-1.54,.31-1.64,.71-3.28,1.02-4.81,.1-.51,.31-1.02,.41-1.54l.1-.31c.21-.71,.41-1.33,.61-1.95,.21-.61,.31-1.02,.41-1.33,.51-1.64,1.02-2.97,1.54-4.3l.2-.41c.2-.51,.41-.92,.61-1.43,.82-1.95,1.74-3.79,2.66-5.63,.31-.62,.51-1.13,.82-1.54,.3-.52,.61-1.03,.82-1.54l.1-.2c.31-.61,.62-1.12,1.03-1.74,1.54-2.56,3.27-5.01,5.01-7.27,.41-.51,.61-.82,1.02-1.23,.72-.92,1.54-1.84,2.36-2.76,.41-.51,.82-.92,1.13-1.33,.82-.92,1.64-1.74,2.56-2.77,8.7-8.7,19.05-15.26,30.52-19.35,2.36-.82,5.02-.11,6.66,1.84,1.64,1.95,1.95,4.61,.71,6.86-6.96,13.11-10.65,27.95-10.65,42.91,0,1.23,0,2.56,.1,4.09,.1,2.36,.31,4.71,.61,6.96,.1,.51,.1,1.12,.21,1.64l.1,.51v.51c.1,.51,.1,.92,.21,1.43v.21c0,.1,0,.2,.1,.3,.1,.72,.2,1.33,.31,1.95,.1,.62,.21,1.23,.41,1.95,.31,1.53,.72,2.97,1.13,4.5,.2,.61,.41,1.33,.61,2.05,.2,.72,.41,1.43,.61,2.05,.92,2.97,2.05,5.73,3.18,8.39,.31,.82,.61,1.43,.92,2.05l.92,1.84,.2,.41c1.02,2.15,.72,4.71-.71,6.55-1.23,1.43-2.97,2.25-4.81,2.25h0Zm-42.09-35.54c9.22,8.4,19.87,14.95,31.34,19.46-.2-.51-.41-1.12-.61-1.74-.31-.82-.51-1.64-.72-2.46-.2-.82-.51-1.64-.61-2.25-.51-1.74-.92-3.58-1.23-5.22-.1-.72-.31-1.54-.41-2.15-.11-.61-.31-1.33-.41-2.05,0-.21-.1-.51-.1-.72-.1-.51-.2-.92-.2-1.43-.1-.3-.1-.51-.1-.82l-.1-.51c-.11-.71-.21-1.43-.21-1.94-.3-2.46-.51-5.12-.61-7.88-.1-1.74-.1-3.18-.1-4.61,0-11.26,1.84-22.53,5.43-33.18-4.2,2.66-8.19,5.84-11.78,9.52-.82,.82-1.54,1.53-2.15,2.25,0,0,0,.11-.1,.11-.31,.3-.62,.61-.92,1.02-.82,.92-1.43,1.64-2.05,2.46-.3,.31-.51,.61-.82,1.02-1.54,1.94-2.97,3.99-4.3,6.25-.31,.41-.51,.92-.82,1.33l-.1,.2c-.31,.51-.51,.92-.82,1.43-.2,.41-.41,.72-.71,1.33-.82,1.54-1.54,3.17-2.25,4.81-.21,.41-.31,.82-.51,1.13l-.1,.41c-.41,1.13-.82,2.25-1.33,3.69v.1c-.1,.21-.21,.51-.31,.82v.1c-.2,.51-.31,1.13-.51,1.64l-.1,.3c-.1,.41-.21,.82-.31,1.33-.31,1.33-.61,2.66-.92,4.2-.1,.41-.1,.82-.2,1.23-.1,.31-.21,.62-.21,.82h0Zm0,0"/>
  <path class="cls-2" d="M337.1,421.07c-9.73-16.18-14.95-34.41-15.26-53.56l.1-.1c.61-.51,1.23-1.02,1.84-1.43,.51-.41,1.02-.71,1.54-1.02,1.95-1.33,3.79-2.56,5.63-3.58,.51-.31,.92-.51,1.43-.82,.61-.31,1.12-.61,1.54-.82,.92-.41,1.74-.92,2.66-1.33l.41-.2c.2-.1,.3-.2,.51-.2l.41-.21c.41-.2,.92-.41,1.43-.61,.51-.21,.82-.31,1.23-.51l.31-.1c.41-.21,.82-.31,1.23-.52h.11c1.02-.41,1.84-.71,2.66-.92,.82-.31,1.54-.52,2.15-.72,.61-.2,.92-.31,1.33-.41,.92-.3,1.64-.41,2.36-.61,.51-.1,.82-.21,1.23-.31l.61-.1h.1l.62-.1c.2,0,.51-.1,.71-.1s.72-.11,.72-.11l.51-.1,.61-.1c.61-.1,1.33-.2,1.94-.31,.92-.1,1.74-.2,2.66-.3,.51-.11,.92-.11,1.33-.11h.41c.92-.1,1.84-.1,2.66-.2,1.02,0,2.25-.1,3.38-.1,11.47,0,22.53,2.56,32.67,7.37-15.15,4.61-28.98,12.9-40.45,24.37-1.13,1.13-2.15,2.15-3.07,3.28-.41,.41-.92,1.02-1.43,1.64-1.02,1.12-1.95,2.25-2.77,3.38-.41,.41-.82,1.02-1.23,1.53-2.05,2.66-4.1,5.53-5.94,8.6-.41,.71-.82,1.33-1.23,2.05-.41,.72-.72,1.33-1.12,2.05-.31,.62-.72,1.33-1.03,2.05-1.02,1.95-2.05,4.2-3.07,6.55-.31,.62-.61,1.33-.92,2.15-.41,1.43-1.02,2.97-1.54,4.61h0Zm0,0"/>
  <path class="cls-3" d="M337.1,427.21c-2.15,0-4.1-1.12-5.22-2.97-10.24-17-15.77-36.55-16.18-56.62,0-1.84,.82-3.69,2.25-4.92l.2-.2c.72-.51,1.33-1.02,2.05-1.53,.52-.41,1.03-.72,1.54-1.02l.1-.11c2.05-1.43,4.09-2.76,6.14-3.89,.61-.3,1.12-.61,1.64-.92,.61-.3,1.13-.61,1.64-.92,.92-.51,1.84-.92,2.87-1.43l.41-.2c.31-.2,.62-.31,.82-.41l.31-.1c.51-.21,1.02-.41,1.43-.61,.41-.21,.82-.31,1.12-.51l.41-.21c.41-.2,.92-.31,1.33-.51h.1c1.12-.41,2.05-.71,2.97-1.02,.82-.31,1.54-.51,2.25-.72,.61-.2,1.12-.3,1.53-.41,1.02-.31,1.84-.52,2.56-.62,.51-.1,.82-.2,1.23-.3l.51-.1c.1,0,.31-.1,.41-.1l.61-.1c.21,0,.41-.1,.62-.1h.2l.82-.1h.2l.92-.1,2.15-.31c1.12-.21,2.15-.31,2.97-.41,.61-.1,1.02-.1,1.54-.1h.2c.92-.11,1.84-.11,2.87-.21,1.33-.1,2.56-.1,3.69-.1,12.39,0,24.27,2.66,35.33,7.99,2.25,1.12,3.69,3.48,3.48,6.04-.2,2.56-1.95,4.71-4.3,5.43-14.13,4.3-27.24,12.18-37.89,22.84-1.12,1.12-1.95,2.05-2.87,2.97l-.1,.1c-.31,.41-.82,.92-1.23,1.43-1.02,1.12-1.84,2.15-2.66,3.18-.41,.41-.72,.92-1.13,1.43-1.95,2.56-3.79,5.22-5.63,8.19-.41,.61-.82,1.33-1.13,1.94-.31,.61-.71,1.23-1.02,1.95l-.92,1.84s0,.1-.1,.1c-.92,1.84-1.95,3.99-2.87,6.04-.31,.61-.61,1.33-.82,2.05-.61,1.43-1.12,2.87-1.64,4.4-.72,2.25-2.77,3.89-5.12,4.2-.2-.21-.41-.21-.61-.21h0Zm-9.01-56.73c.61,12.49,3.48,24.68,8.4,35.94,.3-.61,.51-1.12,.82-1.64,.41-.72,.72-1.43,1.13-2.15,.41-.71,.82-1.43,1.12-2.05,.41-.82,.92-1.53,1.33-2.25,1.95-3.28,4.09-6.35,6.35-9.22,.41-.62,.92-1.23,1.33-1.74,.82-1.12,1.84-2.36,2.97-3.48,.51-.62,1.12-1.23,1.54-1.64,1.02-1.12,2.05-2.25,3.28-3.38,7.99-7.98,17.2-14.64,27.24-19.66-4.91-1.12-9.93-1.64-15.16-1.64-1.02,0-2.15,0-3.17,.1-.72,0-1.54,.1-2.36,.2h-.61c-.31,0-.62,0-1.03,.1l-2.46,.3c-.61,.1-1.12,.21-1.74,.31l-.62,.1h-.2l-.92,.2c-.31,.11-.61,.11-.92,.21l-.31,.1h-.2l-.61,.1c-.31,.11-.62,.11-1.02,.21-.72,.2-1.33,.3-2.15,.51h-.1c-.31,.1-.61,.2-1.02,.3h-.11c-.61,.21-1.23,.41-1.94,.62-.72,.2-1.54,.51-2.46,.82l-.1,.11h-.1c-.31,.1-.72,.2-1.02,.41l-.41,.2c-.31,.1-.61,.2-1.02,.41-.51,.2-.82,.41-1.23,.51l-.1,.1-.61,.31h-.1l-2.87,1.43-1.43,.71c-.51,.21-.82,.51-1.23,.72-1.74,1.02-3.48,2.15-5.32,3.38l-.11,.1c-.3,0-.51,.2-.71,.31h0Zm0,0"/>
  <path class="cls-2" d="M414.31,340.58c-14.03-7.48-29.59-11.37-45.87-11.37-1.43,0-2.76,0-4.4,.1-1.33,.1-2.46,.1-3.58,.2-.72,0-1.43,.1-2.15,.2-1.02,.1-2.25,.21-3.48,.41-.82,.1-1.64,.21-2.36,.41-.31,0-.51,.1-.82,.1-.61,.11-1.33,.21-2.05,.41l-.72,.1-1.54,.31c-.51,.1-1.02,.2-1.64,.41-.82,.2-1.74,.41-2.97,.71-.62,.21-1.43,.41-2.15,.62-.72,.2-1.64,.51-2.56,.82-.92,.31-2.05,.72-3.38,1.13-.62,.2-1.33,.51-1.95,.72l-.31,.1c-.51,.21-1.12,.41-1.64,.72-.52,.2-1.13,.51-1.74,.71-.51,.21-1.02,.41-1.54,.72l-.21,.1c-.82,.31-1.54,.72-2.36,1.13,4.51-18.23,13.72-34.92,27.04-48.64,16.79,1.94,32.46,9.62,44.44,21.6,8.09,7.99,14.23,17.71,17.92,28.26h0Zm0,0"/>
  <path class="cls-3" d="M414.31,346.73c-1.02,0-1.95-.2-2.87-.72-13.11-6.96-27.95-10.65-42.9-10.65-1.33,0-2.56,0-4.1,.1-1.23,.1-2.25,.1-3.18,.21h-.2c-.61,0-1.23,.1-1.84,.2h-.1c-.92,.1-2.05,.21-3.18,.41-.71,.1-1.43,.21-2.25,.31h-.21c-.1,0-.31,0-.41,.1h-.1c-.51,.1-1.23,.2-1.84,.31l-.72,.1h-.21c-.41,.1-.71,.1-1.02,.2h-.2c-.51,.1-.92,.21-1.43,.31h-.11c-.71,.1-1.64,.41-2.66,.71h-.1c-.51,.11-1.23,.31-1.84,.51h-.1c-.62,.21-1.43,.41-2.36,.72h-.11c-.82,.2-1.84,.61-3.07,1.02,0,0-.1,0-.1,.1-.61,.21-1.13,.41-1.74,.62l-.2,.1-1.54,.61s-.11,0-.11,.1c-.41,.21-1.02,.41-1.54,.72q-.1,0-.2,.1c-.41,.2-.82,.41-1.33,.61l-.21,.11c-.82,.31-1.54,.72-2.15,1.02-2.15,1.02-4.71,.82-6.56-.72-1.84-1.54-2.66-3.99-2.15-6.25,4.81-19.25,14.64-37.07,28.57-51.41,1.33-1.33,3.27-2.05,5.12-1.84,18.13,2.15,35.13,10.44,48.03,23.34,8.8,8.71,15.26,19.05,19.35,30.62,.82,2.35,.11,5.01-1.84,6.66-1.43,1.12-2.87,1.64-4.3,1.64h0Zm-60-49.46c-8.4,9.22-14.95,19.87-19.46,31.34,.51-.2,1.02-.31,1.43-.51,.92-.31,1.95-.61,2.66-.82,.82-.2,1.64-.51,2.36-.71,1.23-.31,2.25-.62,3.07-.82,.51-.1,1.02-.2,1.54-.41,.62-.1,1.23-.3,1.95-.41l.62-.1c.71-.1,1.43-.31,2.05-.41,.31-.1,.71-.1,1.02-.2,.82-.1,1.64-.31,2.46-.41,1.33-.2,2.66-.31,3.69-.41,.71-.1,1.54-.1,2.25-.2,1.12-.11,2.35-.21,3.68-.21,1.74-.1,3.18-.1,4.61-.1,11.27,0,22.53,1.84,33.18,5.43-2.66-4.2-5.84-8.19-9.52-11.77-10.04-10.14-23.35-17-37.58-19.25h0Zm0,0"/>
  <path class="cls-2" d="M429.67,420.35c-30.21,0-54.79-24.58-54.79-54.79s24.57-54.78,54.79-54.78,54.78,24.57,54.78,54.78-24.57,54.79-54.78,54.79h0Zm0,0"/>
  <path class="cls-3" d="M429.67,426.5c-33.59,0-60.93-27.34-60.93-60.93s27.34-60.93,60.93-60.93,60.93,27.34,60.93,60.93-27.34,60.93-60.93,60.93h0Zm0-109.47c-26.83,0-48.64,21.81-48.64,48.64s21.81,48.64,48.64,48.64,48.64-21.81,48.64-48.64-21.81-48.64-48.64-48.64h0Zm0,0"/>
  <path class="cls-2" d="M429.67,182.58H183.91c-33.79,0-61.44,27.65-61.44,61.44v245.76c0,33.79,27.65,61.44,61.44,61.44h245.76c101.38,0,184.32-82.95,184.32-184.32s-82.95-184.32-184.32-184.32h0ZM178.79,510.26c-8.5,0-15.36-6.86-15.36-15.36s6.86-15.36,15.36-15.36,15.36,6.86,15.36,15.36-6.86,15.36-15.36,15.36h0Zm0-256c-8.5,0-15.36-6.86-15.36-15.36s6.86-15.36,15.36-15.36,15.36,6.86,15.36,15.36-6.86,15.36-15.36,15.36h0Zm250.88,244.12c-73.11,0-132.41-59.29-132.41-132.4s59.29-132.5,132.41-132.5,132.4,59.29,132.4,132.4-59.29,132.5-132.4,132.5h0Zm0,0"/>
  <path class="cls-3" d="M429.67,557.36H183.91c-37.27,0-67.58-30.31-67.58-67.59V244.02c0-37.27,30.31-67.59,67.58-67.59h245.76c50.69,0,98.41,19.87,134.55,55.91,36.05,36.05,55.91,83.87,55.91,134.55s-19.86,98.41-55.91,134.55c-36.15,36.04-83.86,55.91-134.55,55.91h0ZM183.91,188.72c-30.51,0-55.3,24.78-55.3,55.3v245.76c0,30.52,24.78,55.3,55.3,55.3h245.76c98.2,0,178.18-79.97,178.18-178.18s-79.98-178.18-178.18-178.18H183.91Zm-5.12,327.68c-11.88,0-21.5-9.62-21.5-21.5s9.62-21.5,21.5-21.5,21.5,9.62,21.5,21.5-9.62,21.5-21.5,21.5h0Zm0-30.72c-5.12,0-9.21,4.09-9.21,9.21s4.1,9.21,9.21,9.21,9.22-4.09,9.22-9.21-4.2-9.21-9.22-9.21h0Zm250.88,18.84c-76.39,0-138.55-62.16-138.55-138.55s62.16-138.65,138.55-138.65,138.55,62.16,138.55,138.55-62.16,138.65-138.55,138.65h0Zm0-264.91c-69.63,0-126.26,56.62-126.26,126.26s56.63,126.26,126.26,126.26,126.26-56.62,126.26-126.26-56.63-126.26-126.26-126.26h0Zm-250.88,20.78c-11.88,0-21.5-9.62-21.5-21.5s9.62-21.5,21.5-21.5,21.5,9.62,21.5,21.5-9.62,21.5-21.5,21.5h0Zm0-30.72c-5.12,0-9.21,4.09-9.21,9.21s4.1,9.22,9.21,9.22,9.22-4.09,9.22-9.22-4.2-9.21-9.22-9.21h0Zm0,0"/>
</svg>